<svg xmlns="http://www.w3.org/2000/svg" version="1.1" xmlns:xlink="http://www.w3.org/1999/xlink" width="200" height="200"><svg xmlns="http://www.w3.org/2000/svg" version="1.1" xmlns:xlink="http://www.w3.org/1999/xlink" viewBox="0 0 200 200"><rect width="200" height="200" fill="url('#gradient')"></rect><defs><linearGradient id="SvgjsLinearGradient1001" gradientTransform="rotate(45 0.5 0.5)"><stop offset="0%" stop-color="#00c3ff"></stop><stop offset="100%" stop-color="#00ffeb"></stop></linearGradient></defs><g><g fill="#ffffff" transform="matrix(7.787072243346008,0,0,7.787072243346008,1.6474384250749665,155.36545955636203)" stroke="#497895" stroke-width="0.2"><path d="M9.89-8.57L9.89-6.03L4.50-6.03L4.50-2.64L10.87-2.64L10.87 0L1.07 0L1.07-14.22L10.89-14.22L10.89-11.57L4.50-11.57L4.50-8.57L9.89-8.57ZM20.13 0L17.10-5.29L15.69-3.75L15.69 0L12.27 0L12.27-14.22L15.69-14.22L15.69-7.95L16.88-9.76L19.95-14.22L24.19-14.22L19.38-7.93L24.19 0L20.13 0Z"></path></g></g></svg><style>@media (prefers-color-scheme: light) { :root { filter: contrast(1) brightness(1); } }
@media (prefers-color-scheme: dark) { :root { filter: none; } }
</style></svg>